<svg width="149" height="149" viewBox="0 0 149 149" fill="none" xmlns="http://www.w3.org/2000/svg">
<g id="dashicons:tickets-alt" clip-path="url(#clip0_122_251)">
<path id="Vector" d="M149 47.531L141.475 68.54V68.4655C137.602 67.0499 133.802 67.2735 130.077 69.0615C126.352 70.8495 123.744 73.6805 122.329 77.5545C120.913 81.4285 121.137 85.228 122.85 88.9529C124.638 92.6779 127.469 95.211 131.418 96.6265V96.701L123.893 117.71L11.6965 77.629L19.072 56.8435C22.946 58.259 26.7455 58.0355 30.4705 56.2475C34.1955 54.534 36.7285 51.703 38.144 47.829C39.5595 43.955 39.336 40.1555 37.548 36.4305C36.7333 34.6592 35.5668 33.0722 34.1196 31.7659C32.6724 30.4596 30.9746 29.4612 29.1295 28.8315L36.7285 7.44995L149 47.531ZM111.973 89.9215L122.18 61.9095C123.074 59.6 122.925 57.067 121.882 54.832C120.839 52.597 118.976 50.8835 116.667 49.9895L60.643 29.651C55.875 27.9375 50.4365 30.545 48.723 35.1639L38.5165 63.1759C36.7285 68.0185 39.2615 73.3825 44.0295 75.096L100.053 95.5089C101.096 95.8815 102.139 96.1049 103.257 96.1049C107.131 96.1049 110.707 93.6465 111.973 89.9215ZM59.3765 33.1525L115.326 53.491C116.741 54.0125 117.859 55.0555 118.529 56.3965C119.125 57.7375 119.2 59.2275 118.678 60.643L108.472 88.655C107.504 91.486 104.151 93.0505 101.32 92.0075L45.3705 71.5945C43.9779 71.0901 42.8425 70.0535 42.2139 68.7124C41.5852 67.3713 41.5148 65.8355 42.018 64.4425L52.2245 36.4305C52.9695 34.27 55.13 32.78 57.4395 32.78C58.11 32.78 58.706 32.929 59.3765 33.1525ZM110.185 123.595C112.793 125.607 115.773 126.65 119.125 126.65H119.2V149H0V126.948C4.0975 126.948 7.6735 125.458 10.5045 122.552C13.41 119.721 14.9 116.145 14.9 112.048C14.9 107.95 13.41 104.449 10.5045 101.543C7.599 98.638 4.0975 97.148 0 97.148V74.5H7.8225L5.7365 80.46L27.118 88.059C23.3185 89.251 20.4875 92.678 20.4875 96.85V126.65C20.4875 131.79 24.6595 135.962 29.8 135.962H89.4C94.5405 135.962 98.7125 131.79 98.7125 126.65V113.612L104.896 115.847C105.79 119.051 107.578 121.658 110.185 123.595ZM24.2125 126.65V96.85C24.2125 93.7955 26.7455 91.2625 29.8 91.2625H35.9835L94.9875 112.346V126.65C94.9875 129.704 92.4545 132.237 89.4 132.237H29.8C26.7455 132.237 24.2125 129.704 24.2125 126.65Z" fill="#072564"/>
</g>
<defs>
<clipPath id="clip0_122_251">
<rect width="149" height="149" fill="white"/>
</clipPath>
</defs>
</svg>
